<svg width="137" height="27" viewBox="0 0 137 27" fill="none" xmlns="http://www.w3.org/2000/svg">
<path fill-rule="evenodd" clip-rule="evenodd" d="M13 23C17.9706 23 22 18.9706 22 14C22 9.02944 17.9706 5 13 5C8.02944 5 4 9.02944 4 14C4 18.9706 8.02944 23 13 23ZM13 27C20.1797 27 26 21.1797 26 14C26 6.8203 20.1797 1 13 1C5.8203 1 0 6.8203 0 14C0 21.1797 5.8203 27 13 27Z" fill="#5458F7"/>
<path d="M25 5C25 7.76142 22.7614 10 20 10C17.2386 10 15 7.76142 15 5C15 2.23858 17.2386 0 20 0C22.7614 0 25 2.23858 25 5Z" fill="#5458F7"/>
<path d="M18 14C18 16.7614 15.7614 19 13 19C10.2386 19 8 16.7614 8 14C8 11.2386 10.2386 9 13 9C15.7614 9 18 11.2386 18 14Z" fill="#5458F7"/>
<path d="M45.592 8.36801H38.872V12.352H45.4V15.52H38.872V22H35.56V5.20001H45.592V8.36801Z" fill="#5458F7"/>
<path d="M50.7173 17.272C51.1333 18.776 52.2613 19.528 54.1013 19.528C55.2853 19.528 56.1813 19.128 56.7893 18.328L59.2853 19.768C58.1013 21.48 56.3573 22.336 54.0533 22.336C52.0693 22.336 50.4773 21.736 49.2773 20.536C48.0773 19.336 47.4773 17.824 47.4773 16C47.4773 14.192 48.0693 12.688 49.2533 11.488C50.4373 10.272 51.9573 9.66401 53.8133 9.66401C55.5733 9.66401 57.0213 10.272 58.1573 11.488C59.3093 12.704 59.8853 14.208 59.8853 16C59.8853 16.4 59.8453 16.824 59.7653 17.272H50.7173ZM50.6693 14.872H56.7893C56.6133 14.056 56.2453 13.448 55.6853 13.048C55.1413 12.648 54.5173 12.448 53.8133 12.448C52.9813 12.448 52.2933 12.664 51.7493 13.096C51.2053 13.512 50.8453 14.104 50.6693 14.872Z" fill="#5458F7"/>
<path d="M64.8089 17.272C65.2249 18.776 66.3529 19.528 68.1929 19.528C69.3769 19.528 70.2729 19.128 70.8809 18.328L73.3769 19.768C72.1929 21.48 70.4489 22.336 68.1449 22.336C66.1609 22.336 64.5689 21.736 63.3689 20.536C62.1689 19.336 61.5689 17.824 61.5689 16C61.5689 14.192 62.1609 12.688 63.3449 11.488C64.5289 10.272 66.0489 9.66401 67.9049 9.66401C69.6649 9.66401 71.1129 10.272 72.2489 11.488C73.4009 12.704 73.9769 14.208 73.9769 16C73.9769 16.4 73.9369 16.824 73.8569 17.272H64.8089ZM64.7609 14.872H70.8809C70.7049 14.056 70.3369 13.448 69.7769 13.048C69.2329 12.648 68.6089 12.448 67.9049 12.448C67.0729 12.448 66.3849 12.664 65.8409 13.096C65.2969 13.512 64.9369 14.104 64.7609 14.872Z" fill="#5458F7"/>
<path d="M93.0102 12.976V14.272C93.0102 16.672 92.2422 18.616 90.7062 20.104C89.1702 21.592 87.1862 22.336 84.7542 22.336C82.1622 22.336 80.0102 21.496 78.2982 19.816C76.6022 18.12 75.7542 16.056 75.7542 13.624C75.7542 11.176 76.5942 9.10401 78.2742 7.40801C79.9702 5.71201 82.0662 4.86401 84.5622 4.86401C86.1302 4.86401 87.5622 5.22401 88.8582 5.94401C90.1542 6.64801 91.1622 7.59201 91.8822 8.77601L89.0502 10.408C88.6502 9.72001 88.0422 9.16001 87.2262 8.72801C86.4262 8.29601 85.5302 8.08001 84.5382 8.08001C82.9382 8.08001 81.6182 8.60801 80.5782 9.66401C79.5542 10.704 79.0422 12.024 79.0422 13.624C79.0422 15.208 79.5622 16.52 80.6022 17.56C81.6582 18.584 83.0502 19.096 84.7782 19.096C86.0582 19.096 87.1142 18.816 87.9462 18.256C88.7942 17.68 89.3702 16.896 89.6742 15.904H84.5862V12.976H93.0102Z" fill="#5458F7"/>
<path d="M98.5579 12.064C98.8459 11.296 99.3179 10.72 99.9739 10.336C100.646 9.95201 101.39 9.76001 102.206 9.76001V13.216C101.262 13.104 100.414 13.296 99.6619 13.792C98.9259 14.288 98.5579 15.112 98.5579 16.264V22H95.4619V10H98.5579V12.064Z" fill="#5458F7"/>
<path d="M112.931 10H116.027V22H112.931V20.584C112.003 21.752 110.699 22.336 109.019 22.336C107.419 22.336 106.043 21.728 104.891 20.512C103.755 19.28 103.187 17.776 103.187 16C103.187 14.224 103.755 12.728 104.891 11.512C106.043 10.28 107.419 9.66401 109.019 9.66401C110.699 9.66401 112.003 10.248 112.931 11.416V10ZM107.219 18.448C107.843 19.072 108.635 19.384 109.595 19.384C110.555 19.384 111.347 19.072 111.971 18.448C112.611 17.808 112.931 16.992 112.931 16C112.931 15.008 112.611 14.2 111.971 13.576C111.347 12.936 110.555 12.616 109.595 12.616C108.635 12.616 107.843 12.936 107.219 13.576C106.595 14.2 106.283 15.008 106.283 16C106.283 16.992 106.595 17.808 107.219 18.448Z" fill="#5458F7"/>
<path d="M132.347 9.66401C133.723 9.66401 134.819 10.112 135.635 11.008C136.467 11.904 136.883 13.104 136.883 14.608V22H133.787V14.824C133.787 14.104 133.611 13.544 133.259 13.144C132.907 12.744 132.411 12.544 131.771 12.544C131.067 12.544 130.515 12.776 130.115 13.24C129.731 13.704 129.539 14.376 129.539 15.256V22H126.443V14.824C126.443 14.104 126.267 13.544 125.915 13.144C125.563 12.744 125.067 12.544 124.427 12.544C123.739 12.544 123.187 12.776 122.771 13.24C122.371 13.704 122.171 14.376 122.171 15.256V22H119.075V10H122.171V11.272C122.891 10.2 124.003 9.66401 125.507 9.66401C126.979 9.66401 128.067 10.24 128.771 11.392C129.571 10.24 130.763 9.66401 132.347 9.66401Z" fill="#5458F7"/>
</svg>
